<svg xmlns="http://www.w3.org/2000/svg" viewBox="0 0 100 100" width="32" height="32"><defs><linearGradient id="logo-gradient" x1="0%" y1="0%" x2="100%" y2="100%"><stop offset="0%" stop-color="#0ea5e9" /><stop offset="100%" stop-color="#3b82f6" /></linearGradient><linearGradient id="latch-gradient" x1="0%" y1="0%" x2="0%" y2="100%"><stop offset="0%" stop-color="white" stop-opacity="0.9" /><stop offset="100%" stop-color="white" stop-opacity="0.5" /></linearGradient></defs><circle cx="50" cy="50" r="50" fill="#7acd34" /><g fill="none" stroke="#0088ff" stroke-width="5" stroke-linecap="round" stroke-linejoin="round"><path d="M35 38 L28 42 L32 48 L38 43 M32 48 L48 68" /><path d="M28 68 L72 32 M68 28 L72 26 L74 28 L70 34" /><path d="M25 50 V 75 H 75 V 50" /><path d="M25 50 L 35 25 H 75 L 65 50" /><path d="M35 25 L 35 32" /><path d="M75 25 L 75 50" /><path d="M48 25 V 22 H 62 V 25" /></g><text x="50" y="58" font-family="Arial, Roboto, sans-serif" font-weight="900" font-size="24" fill="white" text-anchor="middle" dominant-baseline="middle" stroke="#7acd34" stroke-width="4" paint-order="stroke">LRM</text></svg>